<?xml version="1.0" encoding="UTF-8" standalone="no"?>
<svg width="3354px" height="3018px" viewBox="0 0 3354 3018" version="1.1" xmlns="http://www.w3.org/2000/svg" xmlns:xlink="http://www.w3.org/1999/xlink" xmlns:sketch="http://www.bohemiancoding.com/sketch/ns">
    <!-- Generator: Sketch 3.0.3 (7891) - http://www.bohemiancoding.com/sketch -->
    <title>Imported Layers</title>
    <desc>Created with Sketch.</desc>
    <defs></defs>
    <g id="Page-1" stroke="none" stroke-width="1" fill="none" fill-rule="evenodd" sketch:type="MSPage">
        <g id="Imported-Layers" sketch:type="MSLayerGroup" transform="translate(1679.000000, 1504.500000) rotate(-60.000000) translate(-1679.000000, -1504.500000) translate(731.000000, 110.000000)" fill="#00813F">
            <path d="M943.343647,235.9494 C935.313529,235.9494 929.04,242.47566 929.04,250.50798 C929.04,258.5403 935.313529,265.06656 943.343647,265.06656 C951.373765,265.06656 957.898235,258.5403 957.898235,250.50798 C957.898235,242.47566 951.373765,235.9494 943.343647,235.9494" id="Fill-1" sketch:type="MSShapeGroup"></path>
            <path d="M943.343647,2531.18484 C935.313529,2531.18484 929.04,2537.7111 929.04,2545.74342 C929.04,2553.77574 935.313529,2560.302 943.343647,2560.302 C951.373765,2560.302 957.898235,2553.77574 957.898235,2545.74342 C957.898235,2537.7111 951.373765,2531.18484 943.343647,2531.18484" id="Fill-2" sketch:type="MSShapeGroup"></path>
            <path d="M21.3857647,2774.41353 L21.3857647,2735.75799 C40.7082353,2740.02516 55.7647059,2755.08576 60.0307059,2774.41353 L21.3857647,2774.41353 L21.3857647,2774.41353 Z M1826.90753,2774.41353 C1830.92259,2755.08576 1846.23,2740.02516 1865.55247,2735.75799 L1865.55247,2774.41353 L1826.90753,2774.41353 L1826.90753,2774.41353 Z M813.858,2672.75448 L1073.08024,2672.75448 L1073.08024,2774.41353 L813.858,2774.41353 L813.858,2672.75448 Z M547.860353,2774.41353 L547.860353,2431.78488 L1339.07788,2431.78488 L1339.07788,2774.41353 L1087.63482,2774.41353 L1087.63482,2658.1959 L799.303412,2658.1959 L799.303412,2774.41353 L547.860353,2774.41353 L547.860353,2774.41353 Z M716.492824,2417.2263 C776.718706,2363.00814 856.267059,2329.87482 943.343647,2329.87482 C1030.67118,2329.87482 1110.21953,2363.00814 1170.44541,2417.2263 L716.492824,2417.2263 L716.492824,2417.2263 Z M943.343647,1416.19842 C952.879412,1416.19842 960.909529,1410.17418 963.920824,1401.89085 L1282.36518,1401.89085 C1280.35765,1492.50546 1242.96741,1574.58573 1183.24341,1634.32611 C1121.76282,1695.82356 1037.19565,1733.72607 943.343647,1733.72607 C849.742588,1733.72607 765.175412,1695.82356 703.694824,1634.32611 C643.970824,1574.58573 606.580588,1492.50546 604.573059,1401.89085 L923.017412,1401.89085 C926.028706,1410.17418 934.058824,1416.19842 943.343647,1416.19842 L943.343647,1416.19842 Z M943.343647,1748.28465 C1136.31741,1748.28465 1292.90471,1593.66249 1296.91976,1401.89085 L1865.55247,1401.89085 L1865.55247,2727.97668 C1841.964,2732.24385 1823.39435,2750.81859 1818.87741,2774.41353 L1353.63247,2774.41353 L1353.63247,2417.2263 L1191.52447,2417.2263 C1127.72965,2354.41802 1040.51365,2315.56725 944.263765,2315.56725 L943.343647,2315.56725 C846.731294,2315.56725 759.152824,2354.22279 695.413765,2417.2263 L533.305765,2417.2263 L533.305765,2774.41353 L67.8098824,2774.41353 C63.5438824,2750.81859 44.9742353,2732.24385 21.3857647,2727.97668 L21.3857647,1401.89085 L590.018471,1401.89085 C593.782588,1593.66249 750.620824,1748.28465 943.343647,1748.28465 L943.343647,1748.28465 Z M604.573059,1387.33227 C606.580588,1296.46665 643.970824,1214.38638 703.694824,1154.646 C765.175412,1093.39956 849.742588,1055.24604 943.343647,1055.24604 C1037.19565,1055.24604 1121.76282,1093.39956 1183.24341,1154.646 C1242.96741,1214.38638 1280.35765,1296.46665 1282.36518,1387.33227 L963.920824,1387.33227 C960.909529,1378.79793 952.879412,1372.77369 943.343647,1372.77369 C934.058824,1372.77369 926.028706,1378.79793 923.017412,1387.33227 L604.573059,1387.33227 L604.573059,1387.33227 Z M943.343647,459.09729 C856.267059,459.09729 776.718706,425.96397 716.492824,371.74581 L1170.44541,371.74581 C1110.21953,425.96397 1030.67118,459.09729 943.343647,459.09729 L943.343647,459.09729 Z M21.3857647,53.21412 L21.3857647,14.55858 L60.0307059,14.55858 C55.7647059,33.88635 40.7082353,49.19796 21.3857647,53.21412 L21.3857647,53.21412 Z M813.858,14.55858 L1073.08024,14.55858 L1073.08024,116.21763 L813.858,116.21763 L813.858,14.55858 Z M799.303412,130.77621 L1087.63482,130.77621 L1087.63482,14.55858 L1339.07788,14.55858 L1339.07788,357.43824 L547.609412,357.43824 L547.609412,14.55858 L799.303412,14.55858 L799.303412,130.77621 L799.303412,130.77621 Z M943.343647,473.65587 C1039.956,473.65587 1127.53447,434.74932 1191.52447,371.74581 L1353.63247,371.74581 L1353.63247,14.55858 L1818.87741,14.55858 C1823.39435,38.15352 1841.964,56.72826 1865.55247,61.24644 L1865.55247,1387.33227 L1296.91976,1387.33227 C1292.90471,1195.30962 1136.31741,1040.68746 943.343647,1040.68746 C750.620824,1040.68746 593.782588,1195.30962 590.018471,1387.33227 L21.3857647,1387.33227 L21.3857647,61.24644 C44.9742353,56.72826 63.5438824,38.15352 67.8098824,14.55858 L533.305765,14.55858 L533.305765,371.74581 L695.413765,371.74581 C759.152824,434.74932 846.731294,473.65587 943.343647,473.65587 L943.343647,473.65587 Z M1865.55247,53.21412 C1846.23,49.19796 1830.92259,33.88635 1826.90753,14.55858 L1865.55247,14.55858 L1865.55247,53.21412 L1865.55247,53.21412 Z M6.83117647,2788.97211 L1880.10706,2788.97211 L1880.10706,0 L6.83117647,0 L6.83117647,2788.97211 Z" id="Fill-3" sketch:type="MSShapeGroup"></path>
        </g>
    </g>
</svg>