<?xml version="1.0" encoding="UTF-8" standalone="no"?>
<svg width="51px" height="51px" viewBox="0 0 51 51" version="1.1" xmlns="http://www.w3.org/2000/svg" xmlns:xlink="http://www.w3.org/1999/xlink" xmlns:sketch="http://www.bohemiancoding.com/sketch/ns">
    <!-- Generator: Sketch 3.0.3 (7891) - http://www.bohemiancoding.com/sketch -->
    <title>Instagram</title>
    <desc>Created with Sketch.</desc>
    <defs></defs>
    <g id="Page-1" stroke="none" stroke-width="1" fill="none" fill-rule="evenodd" sketch:type="MSPage">
        <g id="Instagram" sketch:type="MSLayerGroup" transform="translate(0.000000, 1.000000)" fill="#FFF100">
            <path d="M38.7234375,24.925 C37.0296875,30.7875 31.63125,35.08125 25.221875,35.08125 C18.809375,35.08125 13.40625,30.7875 11.7125,24.925 L0.221875,24.925 L0.221875,40.25625 C0.221875,45.43125 4.421875,49.63125 9.596875,49.63125 L40.846875,49.63125 C46.021875,49.63125 50.221875,45.43125 50.221875,40.25625 L50.221875,24.925 L38.7234375,24.925" id="Fill-1" sketch:type="MSShapeGroup"></path>
            <path d="M11.71875,17.1125 C13.4125,11.253125 18.8078125,6.95625 25.228125,6.95625 C31.640625,6.95625 37.0359375,11.253125 38.7296875,17.1125 L50.228125,17.1125 L50.228125,9.00625 C50.228125,3.83125 46.028125,-0.36875 40.853125,-0.36875 L9.603125,-0.36875 C4.428125,-0.36875 0.228125,3.83125 0.228125,9.00625 L0.228125,17.1125 L11.71875,17.1125" id="Fill-2" sketch:type="MSShapeGroup"></path>
        </g>
    </g>
</svg>