<?xml version="1.0" encoding="UTF-8" standalone="no"?>
<svg width="51px" height="41px" viewBox="0 0 51 41" version="1.1" xmlns="http://www.w3.org/2000/svg" xmlns:xlink="http://www.w3.org/1999/xlink" xmlns:sketch="http://www.bohemiancoding.com/sketch/ns">
    <!-- Generator: Sketch 3.0.3 (7891) - http://www.bohemiancoding.com/sketch -->
    <title>Menu</title>
    <desc>Created with Sketch.</desc>
    <defs></defs>
    <g id="Page-1" stroke="none" stroke-width="1" fill="none" fill-rule="evenodd" sketch:type="MSPage">
        <g id="Menu" sketch:type="MSLayerGroup" transform="translate(1.000000, 1.000000)" fill="#00813F">
            <path d="M49.2703125,3.848 C49.2703125,6.0208 47.5453125,7.7872 45.4125,7.7872 L3.1234375,7.7872 C1.00625,7.7872 -0.728125,6.0208 -0.728125,3.848 C-0.728125,1.6752 0.996875,-0.0896 3.1234375,-0.0896 L45.4125,-0.0896 C47.553125,-0.0896 49.2703125,1.672 49.2703125,3.848" id="Fill-1" sketch:type="MSShapeGroup"></path>
            <path d="M49.2703125,19.5968 C49.2703125,21.7712 47.5453125,23.5408 45.4125,23.5408 L3.1234375,23.5408 C1.00625,23.5408 -0.728125,21.7744 -0.728125,19.5968 C-0.728125,17.4304 0.996875,15.6592 3.1234375,15.6592 L45.4125,15.6592 C47.553125,15.6592 49.2703125,17.4272 49.2703125,19.5968" id="Fill-2" sketch:type="MSShapeGroup"></path>
            <path d="M49.2703125,35.3568 C49.2703125,37.5232 47.5453125,39.2976 45.4125,39.2976 L3.1234375,39.2976 C1.00625,39.2976 -0.728125,37.5312 -0.728125,35.3568 C-0.728125,33.184 0.996875,31.4176 3.1234375,31.4176 L45.4125,31.4176 C47.553125,31.4176 49.2703125,33.1808 49.2703125,35.3568" id="Fill-3" sketch:type="MSShapeGroup"></path>
        </g>
    </g>
</svg>