<?xml version="1.0" encoding="UTF-8" standalone="no"?>
<svg width="49px" height="40px" viewBox="0 0 49 40" version="1.1" xmlns="http://www.w3.org/2000/svg" xmlns:xlink="http://www.w3.org/1999/xlink" xmlns:sketch="http://www.bohemiancoding.com/sketch/ns">
    <!-- Generator: Sketch 3.0.3 (7891) - http://www.bohemiancoding.com/sketch -->
    <title>Twitter</title>
    <desc>Created with Sketch.</desc>
    <defs></defs>
    <g id="Page-1" stroke="none" stroke-width="1" fill="none" fill-rule="evenodd" sketch:type="MSPage">
        <path d="M48.3606061,5.77948148 C47.2484848,7.55007407 45.7181818,9.19614815 43.7287879,10.663037 L43.7287879,11.5164444 C43.8515152,19.3049259 39.9560606,29.4531852 30.8742424,35.1901481 C26.3257576,38.0692593 21.2333333,39.5164074 15.5712121,39.5164074 C10.9909091,39.5164074 6.7,38.4716667 2.63636364,36.3852222 C1.52424242,35.8218519 0.774242424,35.379963 0.387878788,35.0884074 C0.136363636,34.8758148 0,34.6495556 0,34.3914074 C0,33.9616667 0.387878788,33.575963 0.828787879,33.575963 C1.06212121,33.575963 1.4469697,33.6078519 1.96818182,33.6260741 C2.48636364,33.6716296 2.87575758,33.7004815 3.13636364,33.7004815 C6.63939394,33.7004815 9.88181818,32.8015185 12.8272727,30.9747407 C9.28181818,30.1501852 6.41969697,27.5261852 5.28333333,24.0533333 C5.25151515,23.9318519 5.23333333,23.8316296 5.23333333,23.7678519 C5.23333333,23.3563333 5.58030303,22.9767037 6.02272727,22.9767037 C6.11212121,22.9767037 6.23939394,23.0085926 6.37272727,23.0237778 C6.53030303,23.0556667 6.63333333,23.0602222 6.68333333,23.0602222 C3.60757576,21.193963 1.64090909,17.8274074 1.64090909,14.2345926 C1.64090909,13.7213333 2.11363636,13.3174074 2.64393939,13.3174074 C2.82727273,13.3174074 3.11666667,13.4115556 3.55909091,13.6028889 C3.98787879,13.8185185 4.25454545,13.943037 4.34848485,13.9506296 C2.76818182,12.0843704 1.96666667,9.86885185 1.96666667,7.38911111 C1.96666667,5.6337037 2.48636364,3.48348148 3.38787879,2.16844444 C3.5530303,1.88296296 3.78181818,1.75692593 4.03030303,1.75692593 C4.31515152,1.75692593 4.55151515,1.85107407 4.73484848,2.0742963 C6.05757576,3.49866667 6.98333333,4.4857037 7.57878788,5.01718519 C11.8166667,8.82866667 17.2560606,11.1595926 22.9136364,11.644 C22.830303,11.2962593 22.8045455,10.8695556 22.8045455,10.3836296 C22.8045455,4.6572963 27.4924242,0 33.2590909,0 C36.0681818,0 38.5,0.980962963 40.55,2.94137037 C42.1787879,2.59362963 43.9909091,1.89662963 45.9484848,0.821518519 C46.0727273,0.742555556 46.2333333,0.700037037 46.3590909,0.700037037 C46.8045455,0.700037037 47.1863636,1.07966667 47.1863636,1.52155556 C47.1863636,2.34307407 45.9560606,4.42192593 45.1424242,5.34974074 C45.3757576,5.26925926 46.3287879,4.92455556 47.0333333,4.65881481 C47.3712121,4.52518519 47.569697,4.4857037 47.6515152,4.4857037 C48.0954545,4.4857037 48.4772727,4.87748148 48.4772727,5.30722222 C48.4848485,5.50159259 48.4348485,5.64585185 48.3606061,5.77948148" id="Twitter" fill="#FFF100" sketch:type="MSShapeGroup"></path>
    </g>
</svg>