<?xml version="1.0" encoding="UTF-8" standalone="no"?>
<svg width="798px" height="798px" viewBox="0 0 798 798" version="1.1" xmlns="http://www.w3.org/2000/svg" xmlns:xlink="http://www.w3.org/1999/xlink" xmlns:sketch="http://www.bohemiancoding.com/sketch/ns">
    <!-- Generator: Sketch 3.0.3 (7891) - http://www.bohemiancoding.com/sketch -->
    <title>Ball</title>
    <desc>Created with Sketch.</desc>
    <defs></defs>
    <g id="Page-1" stroke="none" stroke-width="1" fill="none" fill-rule="evenodd" sketch:type="MSPage">
        <g id="Ball" sketch:type="MSLayerGroup" transform="translate(-1.000000, 0.000000)">
            <path d="M79.4555556,635.348148 C127.955556,700.918519 194.318519,749.448148 271.32963,775.718519 C312.551852,789.785185 355.496296,796.966667 398.948148,797.077778 C442.525926,797.222222 485.803704,790.588889 527.133333,776.714815 C552.403704,768.262963 577.103704,757.537037 600.188889,744.148148 C647.407407,716.759259 687.62963,680.237037 720.211111,636.374074 C769.248148,570.392593 796.133333,491.748148 798.266667,409.292593 L798.3,406.018519 C798.377778,403.944444 798.411111,401.840741 798.425926,399.751852 C798.662963,318.8 774.659259,240.725926 729.07037,174.044444 C679.907407,102.096296 607.388889,47.5037037 524.933333,20.2888889 C484.87037,7.09259259 443.203704,0.333333333 401.066667,0.240740741 C357.551852,0.114814815 314.511111,7.09259259 273.196296,20.9703704 C192.466667,48.0592593 120.344444,102.42963 71.8592593,172.7 C26.0814815,239.048148 1.79259259,316.803704 1.57407407,397.6 C1.57407407,399.433333 1.6037037,401.27037 1.66666667,403.088889 L1.74814815,405.922222 C3.21851852,489.262963 30.1037037,568.603704 79.4555556,635.348148" id="Fill-1" fill="#FFF100" sketch:type="MSShapeGroup"></path>
            <path d="M733.266667,387.377778 C742.048148,404.451852 753.014815,427.948148 753.837037,447.251852 C753.818519,446.922222 762.933333,440.859259 763.885185,440.007407 C764.233333,439.674074 764.562963,439.403704 764.911111,439.040741 C766.085185,437.966667 767.318519,436.792593 768.677778,435.433333 C768.885185,435.211111 769.088889,435.007407 769.311111,434.8 C770.292593,433.818519 771.288889,432.744444 772.333333,431.651852 C766.859259,494.581481 745.781481,552.985185 712.914815,603.037037 C712.237037,598.288889 711.714815,593.42963 710.066667,588.966667 C707.218519,581.074074 705.351852,582.244444 699.451852,587.022222 C685.888889,598.066667 668.818519,603.685185 652.677778,609.759259 C625.981481,619.792593 597.707407,625.425926 569.27037,626.914815 L490.296296,524.992593 L544.222222,363.103704 C544.222222,363.103704 676.6,320.696296 676.618519,320.72963 C700.337037,338.262963 719.722222,361.159259 733.266667,387.377778" id="Fill-2" fill="#FFF100" sketch:type="MSShapeGroup"></path>
            <path d="M405.055556,109.214815 C410.292593,105.514815 415.766667,101.97037 421.259259,98.7740741 C436.288889,90.037037 452.414815,83.2037037 469.125926,78.3925926 C485.107407,73.8037037 500.866667,74.2777778 517.07037,71.5259259 C526.562963,69.8962963 536.644444,69.9888889 545.92963,67.837037 C545.3,65.9703704 544.507407,64.0259259 543.603704,62.2037037 C543.477778,61.9037037 543.366667,61.6518519 543.225926,61.3185185 C542.907407,60.6074074 542.52963,59.7851852 542.085185,58.9148148 C541.911111,58.5814815 541.818519,58.3111111 541.659259,57.9814815 C541.059259,56.762963 540.377778,55.4 539.603704,53.9296296 C539.537037,53.8333333 539.633333,53.6444444 539.666667,53.4851852 C601.314815,78.1222222 654.796296,118.759259 695.037037,170.262963 C693.707407,170.025926 692.362963,169.803704 691.125926,169.614815 C690.937037,169.6 690.7,169.551852 690.511111,169.518519 C688.707407,169.266667 687.077778,169.092593 685.574074,168.951852 C682.914815,168.711111 675.72963,167.162963 674.022222,170.011111 C671.744444,173.714815 676.633333,181.514815 677.251852,185.281481 C677.948148,189.455556 678.151852,193.744444 678.925926,197.985185 C680.796296,207.907407 681.966667,217.955556 682.551852,228.018519 C683.311111,240.9 683.074074,253.859259 681.996296,266.707407 C681.348148,274.159259 680.381481,281.614815 679.148148,289.003704 C678.644444,291.962963 676.474074,312.233333 674.085185,312.992593 L541.737037,355.114815 L404.674074,254.903704 L405.055556,109.214815" id="Fill-3" fill="#FFF100" sketch:type="MSShapeGroup"></path>
            <path d="M481.751852,528.048148 L561.692593,631.218519 C549.951852,662.751852 530.755556,691.362963 505.944444,714.114815 C498.366667,721.048148 490.311111,727.455556 481.751852,733.088889 C479.440741,734.622222 476.040741,735.922222 474.062963,737.851852 C463.948148,747.774074 486.451852,756.033333 491.925926,758.611111 C492.322222,758.8 492.762963,758.959259 493.159259,759.148148 C493.522222,759.307407 493.966667,759.466667 494.32963,759.607407 C464.692593,767.203704 433.662963,771.255556 401.685185,771.255556 C367.314815,771.255556 334.925926,766.903704 304.622222,759.007407 C304.988889,758.862963 305.381481,758.688889 305.72963,758.548148 C305.903704,758.451852 306.077778,758.374074 306.27037,758.296296 C312.725926,755.511111 319.814815,753.055556 325.255556,748.451852 C330.859259,743.737037 331.885185,741.633333 325.907407,738.088889 C319.718519,734.433333 313.77037,730.492593 308.074074,726.125926 C283.974074,707.674074 263.955556,683.877778 249.72963,657.137037 C248.133333,654.144444 236.977778,635.488889 238.733333,632.955556 C239.12963,632.403704 312.392593,527.574074 312.392593,527.574074 L481.751852,528.048148" id="Fill-4" fill="#FFF100" sketch:type="MSShapeGroup"></path>
            <path d="M260.381481,54.7666667 C259.922222,55.8592593 259.462963,56.937037 259.085185,57.8851852 C258.974074,58.1703704 258.892593,58.4222222 258.781481,58.6925926 C258.451852,59.5925926 258.133333,60.4 257.896296,61.0962963 C257.785185,61.3962963 257.707407,61.6185185 257.62963,61.8740741 C257.388889,62.5222222 257.214815,63.0444444 257.088889,63.4703704 C256.218519,65.9407407 255.318519,68.4407407 254.462963,70.8444444 C258.688889,72.1888889 263.892593,70.3851852 268.388889,70.7037037 C283.896296,71.7296296 298.5,72.2037037 313.944444,75.6851852 C343.040741,82.2518519 370.922222,93.8666667 396.4,109.311111 L395.988889,254.918519 L260.27037,352.977778 L127.448148,313.37037 C124.6,312.533333 122.162963,288.288889 121.625926,284.918519 C118.066667,261.596296 117.622222,233.144444 115.959259,209.425926 C114.866667,193.807407 123.42963,168.996296 110.674074,169.755556 C109.996296,169.788889 109.266667,169.837037 108.555556,169.866667 C148.081481,119.455556 200.251852,79.4666667 260.381481,54.7666667" id="Fill-5" fill="#FFF100" sketch:type="MSShapeGroup"></path>
            <path d="M31.3037037,433.107407 C32.7148148,434.52963 34.0111111,435.781481 35.2296296,436.903704 C39.1222222,440.481481 42.7296296,445.225926 48.1259259,446.618519 C51.4777778,437.87037 51.937037,427.677778 55.1037037,418.62963 C58.5703704,408.707407 62.8407407,399.085185 67.762963,389.82963 C74.2185185,377.707407 81.8444444,366.203704 90.5148148,355.540741 C95.4037037,349.544444 100.611111,343.8 106.118519,338.355556 C108.459259,336.044444 122.211111,320.855556 125.088889,321.692593 C125.122222,321.711111 256.251852,360.792593 256.251852,360.792593 L307.377778,519.62963 C307.377778,519.62963 232.881481,626.151852 232.862963,626.2 C231.344444,628.351852 210.585185,624.255556 207.481481,623.844444 C199.414815,622.751852 191.407407,621.281481 183.477778,619.492593 C170.233333,616.485185 157.196296,612.496296 144.57037,607.496296 C135.059259,603.762963 125.785185,599.425926 116.848148,594.507407 C113.57037,592.703704 110.407407,590.755556 107.211111,588.825926 C102.496296,585.962963 99.0592593,580.944444 94.1222222,578.7 C89.6148148,576.625926 90.1037037,577.718519 88.6814815,582.462963 C87.3185185,587.022222 86.9555556,591.8 86.7333333,596.577778 C55.737037,546.481481 36.6222222,489.914815 31.1481481,432.9 C31.1925926,432.981481 31.2555556,433.044444 31.3037037,433.107407" id="Fill-6" fill="#FFF100" sketch:type="MSShapeGroup"></path>
            <path d="M79.6185185,635.348148 C128.118519,700.918519 194.481481,749.448148 271.492593,775.718519 C312.714815,789.785185 355.659259,796.966667 399.111111,797.077778 C442.688889,797.222222 485.966667,790.588889 527.296296,776.714815 C552.566667,768.262963 577.266667,757.537037 600.351852,744.148148 C647.57037,716.759259 687.792593,680.237037 720.374074,636.374074 C769.411111,570.392593 796.296296,491.748148 798.42963,409.292593 L798.462963,406.018519 C798.540741,403.944444 798.574074,401.840741 798.588889,399.751852 C798.825926,318.8 774.822222,240.725926 729.233333,174.044444 C680.07037,102.096296 607.551852,47.5037037 525.096296,20.2888889 C485.02963,7.09259259 443.37037,0.333333333 401.22963,0.240740741 C357.714815,0.114814815 314.674074,7.09259259 273.362963,20.9703704 C192.62963,48.0592593 120.507407,102.42963 72.0222222,172.7 C26.2444444,239.048148 1.95555556,316.803704 1.73703704,397.6 C1.73703704,399.433333 1.76666667,401.27037 1.82962963,403.088889 L1.91111111,405.922222 C3.38148148,489.262963 30.2666667,568.603704 79.6185185,635.348148 L79.6185185,635.348148 Z M733.42963,387.377778 C742.211111,404.451852 753.177778,427.948148 754,447.251852 C753.985185,446.922222 763.096296,440.859259 764.048148,440.007407 C764.396296,439.674074 764.725926,439.403704 765.074074,439.040741 C766.248148,437.966667 767.481481,436.792593 768.840741,435.433333 C769.048148,435.211111 769.251852,435.007407 769.474074,434.8 C770.455556,433.818519 771.451852,432.744444 772.496296,431.651852 C767.022222,494.581481 745.944444,552.985185 713.081481,603.037037 C712.4,598.288889 711.877778,593.42963 710.233333,588.966667 C707.385185,581.074074 705.514815,582.244444 699.614815,587.022222 C686.051852,598.066667 668.981481,603.685185 652.840741,609.759259 C626.144444,619.792593 597.87037,625.425926 569.433333,626.914815 L490.459259,524.992593 L544.385185,363.103704 C544.385185,363.103704 676.766667,320.696296 676.781481,320.72963 C700.5,338.262963 719.885185,361.159259 733.42963,387.377778 L733.42963,387.377778 Z M405.218519,109.214815 C410.455556,105.514815 415.92963,101.97037 421.422222,98.7740741 C436.455556,90.037037 452.577778,83.2037037 469.288889,78.3925926 C485.27037,73.8037037 501.02963,74.2777778 517.233333,71.5259259 C526.725926,69.8962963 536.807407,69.9888889 546.092593,67.837037 C545.462963,65.9703704 544.67037,64.0259259 543.77037,62.2037037 C543.640741,61.9037037 543.52963,61.6518519 543.388889,61.3185185 C543.07037,60.6074074 542.692593,59.7851852 542.248148,58.9148148 C542.074074,58.5814815 541.981481,58.3111111 541.822222,57.9814815 C541.222222,56.762963 540.540741,55.4 539.766667,53.9296296 C539.703704,53.8333333 539.796296,53.6444444 539.82963,53.4851852 C601.477778,78.1222222 654.959259,118.759259 695.2,170.262963 C693.87037,170.025926 692.525926,169.803704 691.288889,169.614815 C691.1,169.6 690.862963,169.551852 690.674074,169.518519 C688.87037,169.266667 687.240741,169.092593 685.737037,168.951852 C683.077778,168.711111 675.896296,167.162963 674.185185,170.011111 C671.907407,173.714815 676.796296,181.514815 677.414815,185.281481 C678.111111,189.455556 678.314815,193.744444 679.088889,197.985185 C680.959259,207.907407 682.12963,217.955556 682.714815,228.018519 C683.474074,240.9 683.237037,253.859259 682.159259,266.707407 C681.511111,274.159259 680.548148,281.614815 679.311111,289.003704 C678.807407,291.962963 676.637037,312.233333 674.248148,312.992593 L541.9,355.114815 L404.837037,254.903704 L405.218519,109.214815 L405.218519,109.214815 Z M481.914815,528.048148 L561.855556,631.218519 C550.114815,662.751852 530.918519,691.362963 506.107407,714.114815 C498.52963,721.048148 490.474074,727.455556 481.914815,733.088889 C479.603704,734.622222 476.203704,735.922222 474.225926,737.851852 C464.114815,747.774074 486.614815,756.033333 492.088889,758.611111 C492.485185,758.8 492.925926,758.959259 493.322222,759.148148 C493.688889,759.307407 494.12963,759.466667 494.492593,759.607407 C464.855556,767.203704 433.825926,771.255556 401.848148,771.255556 C367.477778,771.255556 335.088889,766.903704 304.785185,759.007407 C305.151852,758.862963 305.544444,758.688889 305.892593,758.548148 C306.066667,758.451852 306.240741,758.374074 306.433333,758.296296 C312.888889,755.511111 319.977778,753.055556 325.418519,748.451852 C331.022222,743.737037 332.051852,741.633333 326.07037,738.088889 C319.881481,734.433333 313.933333,730.492593 308.237037,726.125926 C284.137037,707.674074 264.118519,683.877778 249.896296,657.137037 C248.296296,654.144444 237.140741,635.488889 238.896296,632.955556 C239.292593,632.403704 312.555556,527.574074 312.555556,527.574074 L481.914815,528.048148 L481.914815,528.048148 Z M260.544444,54.7666667 C260.085185,55.8592593 259.625926,56.937037 259.248148,57.8851852 C259.137037,58.1703704 259.055556,58.4222222 258.944444,58.6925926 C258.614815,59.5925926 258.296296,60.4 258.059259,61.0962963 C257.948148,61.3962963 257.87037,61.6185185 257.792593,61.8740741 C257.555556,62.5222222 257.381481,63.0444444 257.251852,63.4703704 C256.381481,65.9407407 255.481481,68.4407407 254.625926,70.8444444 C258.851852,72.1888889 264.055556,70.3851852 268.551852,70.7037037 C284.059259,71.7296296 298.662963,72.2037037 314.107407,75.6851852 C343.207407,82.2518519 371.088889,93.8666667 396.562963,109.311111 L396.151852,254.918519 L260.433333,352.977778 L127.611111,313.37037 C124.762963,312.533333 122.325926,288.288889 121.788889,284.918519 C118.22963,261.596296 117.785185,233.144444 116.122222,209.425926 C115.033333,193.807407 123.592593,168.996296 110.837037,169.755556 C110.159259,169.788889 109.42963,169.837037 108.718519,169.866667 C148.244444,119.455556 200.414815,79.4666667 260.544444,54.7666667 L260.544444,54.7666667 Z M31.4666667,433.107407 C32.8777778,434.52963 34.1740741,435.781481 35.3925926,436.903704 C39.2851852,440.481481 42.8925926,445.225926 48.2888889,446.618519 C51.6444444,437.87037 52.1,427.677778 55.2666667,418.62963 C58.7333333,408.707407 63.0037037,399.085185 67.9259259,389.82963 C74.3814815,377.707407 82.0074074,366.203704 90.6777778,355.540741 C95.5703704,349.544444 100.774074,343.8 106.281481,338.355556 C108.622222,336.044444 122.374074,320.855556 125.255556,321.692593 C125.285185,321.711111 256.414815,360.792593 256.414815,360.792593 L307.540741,519.62963 C307.540741,519.62963 233.044444,626.151852 233.025926,626.2 C231.507407,628.351852 210.748148,624.255556 207.648148,623.844444 C199.577778,622.751852 191.57037,621.281481 183.640741,619.492593 C170.4,616.485185 157.359259,612.496296 144.733333,607.496296 C135.222222,603.762963 125.951852,599.425926 117.011111,594.507407 C113.733333,592.703704 110.57037,590.755556 107.374074,588.825926 C102.659259,585.962963 99.2259259,580.944444 94.2888889,578.7 C89.7777778,576.625926 90.2666667,577.718519 88.8444444,582.462963 C87.4814815,587.022222 87.1185185,591.8 86.8962963,596.577778 C55.9,546.481481 36.7851852,489.914815 31.3111111,432.9 C31.3555556,432.981481 31.4222222,433.044444 31.4666667,433.107407 L31.4666667,433.107407 Z" id="Fill-7" fill="#00813F" sketch:type="MSShapeGroup"></path>
        </g>
    </g>
</svg>